<?xml version="1.0" standalone="no"?>
<svg xmlns:xlink="http://www.w3.org/1999/xlink" id="wave" style="transform:rotate(180deg); transition: 0.3s" viewBox="0 0 1440 490" version="1.1" xmlns="http://www.w3.org/2000/svg"><defs><linearGradient id="sw-gradient-0" x1="0" x2="0" y1="1" y2="0"><stop stop-color="rgba(206, 73, 191, 1)" offset="0%"/><stop stop-color="rgba(106, 50, 161, 1)" offset="100%"/></linearGradient></defs><path style="transform:translate(0, 0px); opacity:1" fill="url(#sw-gradient-0)" d="M0,49L60,81.7C120,114,240,180,360,171.5C480,163,600,82,720,114.3C840,147,960,294,1080,351.2C1200,408,1320,376,1440,326.7C1560,278,1680,212,1800,212.3C1920,212,2040,278,2160,261.3C2280,245,2400,147,2520,147C2640,147,2760,245,2880,245C3000,245,3120,147,3240,122.5C3360,98,3480,147,3600,196C3720,245,3840,294,3960,269.5C4080,245,4200,147,4320,98C4440,49,4560,49,4680,49C4800,49,4920,49,5040,57.2C5160,65,5280,82,5400,122.5C5520,163,5640,229,5760,220.5C5880,212,6000,131,6120,155.2C6240,180,6360,310,6480,318.5C6600,327,6720,212,6840,147C6960,82,7080,65,7200,122.5C7320,180,7440,310,7560,375.7C7680,441,7800,441,7920,441C8040,441,8160,441,8280,367.5C8400,294,8520,147,8580,73.5L8640,0L8640,490L8580,490C8520,490,8400,490,8280,490C8160,490,8040,490,7920,490C7800,490,7680,490,7560,490C7440,490,7320,490,7200,490C7080,490,6960,490,6840,490C6720,490,6600,490,6480,490C6360,490,6240,490,6120,490C6000,490,5880,490,5760,490C5640,490,5520,490,5400,490C5280,490,5160,490,5040,490C4920,490,4800,490,4680,490C4560,490,4440,490,4320,490C4200,490,4080,490,3960,490C3840,490,3720,490,3600,490C3480,490,3360,490,3240,490C3120,490,3000,490,2880,490C2760,490,2640,490,2520,490C2400,490,2280,490,2160,490C2040,490,1920,490,1800,490C1680,490,1560,490,1440,490C1320,490,1200,490,1080,490C960,490,840,490,720,490C600,490,480,490,360,490C240,490,120,490,60,490L0,490Z"/></svg>